<mxfile host="65bd71144e" modified="2021-02-23T18:19:41.882Z" agent="5.0 (Macintosh; Intel Mac OS X 10_13_6) AppleWebKit/537.36 (KHTML, like Gecko) Code/1.53.2 Chrome/87.0.4280.141 Electron/11.2.1 Safari/537.36" etag="SttHlJpO5E7lzJUaCy1O" version="14.2.4" type="embed">
    <diagram id="Bw7XuatcFhR5UVIziYel" name="Page-1">
        <mxGraphModel dx="947" dy="680" grid="1" gridSize="10" guides="1" tooltips="1" connect="1" arrows="1" fold="1" page="1" pageScale="1" pageWidth="827" pageHeight="1169" math="0" shadow="0">
            <root>
                <mxCell id="0"/>
                <mxCell id="1" parent="0"/>
                <mxCell id="7" style="edgeStyle=orthogonalEdgeStyle;rounded=0;orthogonalLoop=1;jettySize=auto;html=1;entryX=0.5;entryY=0;entryDx=0;entryDy=0;" parent="1" source="2" target="3" edge="1">
                    <mxGeometry relative="1" as="geometry"/>
                </mxCell>
                <mxCell id="8" style="edgeStyle=orthogonalEdgeStyle;rounded=0;orthogonalLoop=1;jettySize=auto;html=1;entryX=0.456;entryY=-0.025;entryDx=0;entryDy=0;entryPerimeter=0;" parent="1" source="2" target="4" edge="1">
                    <mxGeometry relative="1" as="geometry"/>
                </mxCell>
                <mxCell id="9" style="edgeStyle=orthogonalEdgeStyle;rounded=0;orthogonalLoop=1;jettySize=auto;html=1;entryX=0.5;entryY=0;entryDx=0;entryDy=0;" parent="1" source="2" target="5" edge="1">
                    <mxGeometry relative="1" as="geometry"/>
                </mxCell>
                <mxCell id="10" style="edgeStyle=orthogonalEdgeStyle;rounded=0;orthogonalLoop=1;jettySize=auto;html=1;entryX=0.5;entryY=0;entryDx=0;entryDy=0;" parent="1" source="2" target="6" edge="1">
                    <mxGeometry relative="1" as="geometry"/>
                </mxCell>
                <mxCell id="2" value="&lt;font style=&quot;font-size: 18px&quot; color=&quot;#000000&quot;&gt;BIERE AMBRÉE&lt;/font&gt;" style="whiteSpace=wrap;html=1;strokeColor=#BD7000;fontColor=#ffffff;fillColor=#F0F0F0;" parent="1" vertex="1">
                    <mxGeometry x="280" y="40" width="240" height="80" as="geometry"/>
                </mxCell>
                <mxCell id="3" value="&lt;font color=&quot;#000000&quot; style=&quot;font-size: 14px&quot;&gt;BELGIQUE&lt;/font&gt;" style="whiteSpace=wrap;html=1;strokeColor=#BD7000;fontColor=#ffffff;fillColor=#F0F0F0;" parent="1" vertex="1">
                    <mxGeometry x="40" y="200" width="160" height="80" as="geometry"/>
                </mxCell>
                <mxCell id="4" value="&lt;font color=&quot;#000000&quot; style=&quot;font-size: 14px&quot;&gt;FRANCE&lt;/font&gt;" style="whiteSpace=wrap;html=1;strokeColor=#BD7000;fontColor=#ffffff;fillColor=#F0F0F0;" parent="1" vertex="1">
                    <mxGeometry x="240" y="200" width="160" height="80" as="geometry"/>
                </mxCell>
                <mxCell id="5" value="&lt;font color=&quot;#000000&quot; style=&quot;font-size: 14px&quot;&gt;ANGLETERRE&lt;/font&gt;" style="whiteSpace=wrap;html=1;strokeColor=#BD7000;fontColor=#ffffff;fillColor=#F0F0F0;" parent="1" vertex="1">
                    <mxGeometry x="440" y="200" width="160" height="80" as="geometry"/>
                </mxCell>
                <mxCell id="6" value="&lt;font color=&quot;#000000&quot; style=&quot;font-size: 14px&quot;&gt;ALLEMAGNE&lt;/font&gt;" style="whiteSpace=wrap;html=1;strokeColor=#BD7000;fontColor=#ffffff;fillColor=#F0F0F0;" parent="1" vertex="1">
                    <mxGeometry x="640" y="200" width="160" height="80" as="geometry"/>
                </mxCell>
                <mxCell id="11" value="&lt;font color=&quot;#000000&quot;&gt;RÉFERENCE BIERE&lt;/font&gt;" style="whiteSpace=wrap;html=1;strokeColor=#BD7000;fontColor=#ffffff;fillColor=#F0F0F0;" parent="1" vertex="1">
                    <mxGeometry x="40" y="320" width="160" height="240" as="geometry"/>
                </mxCell>
                <mxCell id="12" value="&lt;span&gt;&lt;font color=&quot;#000000&quot;&gt;RÉFERENCE BIERE&lt;/font&gt;&lt;/span&gt;" style="whiteSpace=wrap;html=1;strokeColor=#BD7000;fontColor=#ffffff;fillColor=#F0F0F0;" parent="1" vertex="1">
                    <mxGeometry x="240" y="320" width="160" height="240" as="geometry"/>
                </mxCell>
                <mxCell id="13" value="&lt;span&gt;&lt;font color=&quot;#000000&quot;&gt;RÉFERENCE BIERE&lt;/font&gt;&lt;/span&gt;" style="whiteSpace=wrap;html=1;strokeColor=#BD7000;fontColor=#ffffff;fillColor=#F0F0F0;" parent="1" vertex="1">
                    <mxGeometry x="440" y="320" width="160" height="240" as="geometry"/>
                </mxCell>
                <mxCell id="14" value="&lt;span&gt;&lt;font color=&quot;#000000&quot;&gt;RÉFERENCE BIERE&lt;/font&gt;&lt;/span&gt;" style="whiteSpace=wrap;html=1;strokeColor=#BD7000;fontColor=#ffffff;fillColor=#F0F0F0;" parent="1" vertex="1">
                    <mxGeometry x="640" y="320" width="160" height="240" as="geometry"/>
                </mxCell>
                <mxCell id="15" value="&lt;span style=&quot;color: rgb(0 , 0 , 0) ; font-size: 14px&quot;&gt;photo biere&lt;/span&gt;" style="whiteSpace=wrap;html=1;fillColor=#F0F0F0;" vertex="1" parent="1">
                    <mxGeometry x="60" y="340" width="120" height="60" as="geometry"/>
                </mxCell>
                <mxCell id="16" value="&lt;span style=&quot;background-color: rgb(240 , 240 , 240)&quot;&gt;&lt;span style=&quot;color: rgb(0 , 0 , 0) ; font-family: &amp;#34;helvetica&amp;#34; ; font-size: 14px ; font-style: normal ; font-weight: 400 ; letter-spacing: normal ; text-align: center ; text-indent: 0px ; text-transform: none ; word-spacing: 0px ; display: inline ; float: none&quot;&gt;photo&lt;/span&gt;&lt;span style=&quot;color: rgb(0 , 0 , 0) ; font-family: &amp;#34;helvetica&amp;#34; ; font-size: 14px ; font-style: normal ; font-weight: 400 ; letter-spacing: normal ; text-align: center ; text-indent: 0px ; text-transform: none ; word-spacing: 0px ; display: inline ; float: none&quot;&gt; &lt;/span&gt;&lt;span style=&quot;color: rgb(0 , 0 , 0) ; font-family: &amp;#34;helvetica&amp;#34; ; font-size: 14px ; font-style: normal ; font-weight: 400 ; letter-spacing: normal ; text-align: center ; text-indent: 0px ; text-transform: none ; word-spacing: 0px ; display: inline ; float: none&quot;&gt;biere&lt;/span&gt;&lt;/span&gt;" style="whiteSpace=wrap;html=1;fillColor=#f5f5f5;strokeColor=#666666;fontColor=#333333;" vertex="1" parent="1">
                    <mxGeometry x="260" y="340" width="120" height="60" as="geometry"/>
                </mxCell>
                <mxCell id="17" value="&lt;span style=&quot;color: rgb(0 , 0 , 0) ; font-family: &amp;#34;helvetica&amp;#34; ; font-size: 14px ; font-style: normal ; font-weight: 400 ; letter-spacing: normal ; text-align: center ; text-indent: 0px ; text-transform: none ; word-spacing: 0px ; display: inline ; float: none ; background-color: rgb(240 , 240 , 240)&quot;&gt;photo biere&lt;/span&gt;" style="whiteSpace=wrap;html=1;fillColor=#F0F0F0;" vertex="1" parent="1">
                    <mxGeometry x="460" y="340" width="120" height="60" as="geometry"/>
                </mxCell>
                <mxCell id="18" value="&lt;span style=&quot;color: rgb(0 , 0 , 0) ; font-family: &amp;#34;helvetica&amp;#34; ; font-size: 14px ; font-style: normal ; font-weight: 400 ; letter-spacing: normal ; text-align: center ; text-indent: 0px ; text-transform: none ; word-spacing: 0px ; display: inline ; float: none ; background-color: rgb(240 , 240 , 240)&quot;&gt;photo biere&lt;/span&gt;" style="whiteSpace=wrap;html=1;fillColor=#F0F0F0;" vertex="1" parent="1">
                    <mxGeometry x="660" y="340" width="120" height="60" as="geometry"/>
                </mxCell>
            </root>
        </mxGraphModel>
    </diagram>
</mxfile>